<svg height="512pt" viewBox="0 0 511 512" width="512pt" xmlns="http://www.w3.org/2000/svg"><path d="m484.402344 200.40625-40.105469-5.097656c-3.304687-10.179688-7.382813-19.992188-12.136719-29.3125l24.765625-31.894532c10.027344-12.90625 8.855469-31.125-2.601562-42.21875l-33.601563-33.601562c-11.199218-11.5625-29.417968-12.714844-42.34375-2.707031l-31.851562 24.765625c-9.324219-4.753906-19.136719-8.832032-29.335938-12.136719l-5.097656-40.042969c-1.917969-16.0625-15.550781-28.160156-31.699219-28.160156h-47.789062c-16.148438 0-29.78125 12.097656-31.699219 28.097656l-5.097656 40.105469c-10.199219 3.304687-20.011719 7.359375-29.335938 12.136719l-31.871094-24.765625c-12.886718-10.007813-31.105468-8.855469-42.21875 2.601562l-33.601562 33.578125c-11.5625 11.222656-12.734375 29.441406-2.707031 42.367188l24.765625 31.875c-4.777344 9.320312-8.832032 19.132812-12.136719 29.3125l-40.042969 5.097656c-16.0625 1.917969-28.160156 15.550781-28.160156 31.699219v47.789062c0 16.148438 12.097656 29.78125 28.097656 31.699219l40.105469 5.097656c3.304687 10.179688 7.382813 19.992188 12.136719 29.3125l-24.765625 31.894532c-10.027344 12.90625-8.855469 31.125 2.601562 42.21875l33.601563 33.601562c11.21875 11.539062 29.417968 12.691406 42.34375 2.6875l31.875-24.769531c9.320312 4.777343 19.132812 8.855469 29.3125 12.140625l5.097656 40.019531c1.917969 16.105469 15.550781 28.203125 31.699219 28.203125h47.789062c16.148438 0 29.78125-12.097656 31.699219-28.097656l5.097656-40.105469c10.179688-3.304687 19.992188-7.382813 29.3125-12.136719l31.894532 24.765625c12.90625 10.027344 31.125 8.855469 42.21875-2.601562l33.601562-33.601563c11.5625-11.21875 12.734375-29.417968 2.707031-42.34375l-24.765625-31.875c4.777344-9.320312 8.851563-19.132812 12.136719-29.3125l40.023437-5.097656c16.0625-1.917969 28.160157-15.550781 28.160157-31.699219v-47.789062c.019531-16.148438-12.078125-29.78125-28.078125-31.699219zm-227.902344 162.261719c-58.816406 0-106.667969-47.851563-106.667969-106.667969s47.851563-106.667969 106.667969-106.667969 106.667969 47.851563 106.667969 106.667969-47.851563 106.667969-106.667969 106.667969zm0 0" fill="#90a4ae"/></svg>